<svg width="19" height="21" viewBox="0 0 19 21" fill="none" xmlns="http://www.w3.org/2000/svg">
<path d="M2 18.625C2 19.6797 2.82031 20.5 3.875 20.5H15.125C16.1406 20.5 17 19.6797 17 18.625V5.5H2V18.625ZM12.625 8.625C12.625 8.3125 12.8984 8 13.25 8C13.5625 8 13.875 8.3125 13.875 8.625V17.375C13.875 17.7266 13.5625 18 13.25 18C12.8984 18 12.625 17.7266 12.625 17.375V8.625ZM8.875 8.625C8.875 8.3125 9.14844 8 9.5 8C9.8125 8 10.125 8.3125 10.125 8.625V17.375C10.125 17.7266 9.8125 18 9.5 18C9.14844 18 8.875 17.7266 8.875 17.375V8.625ZM5.125 8.625C5.125 8.3125 5.39844 8 5.75 8C6.0625 8 6.375 8.3125 6.375 8.625V17.375C6.375 17.7266 6.0625 18 5.75 18C5.39844 18 5.125 17.7266 5.125 17.375V8.625ZM17.625 1.75H12.9375L12.5469 1.04688C12.3906 0.734375 12.0781 0.5 11.7266 0.5H7.23438C6.88281 0.5 6.57031 0.734375 6.41406 1.04688L6.0625 1.75H1.375C1.02344 1.75 0.75 2.0625 0.75 2.375V3.625C0.75 3.97656 1.02344 4.25 1.375 4.25H17.625C17.9375 4.25 18.25 3.97656 18.25 3.625V2.375C18.25 2.0625 17.9375 1.75 17.625 1.75Z" fill="black"/>
</svg>
