<svg width="21" height="21" viewBox="0 0 21 21" fill="none" xmlns="http://www.w3.org/2000/svg">
<path d="M19.9141 6.08594C20.6562 5.34375 20.6562 4.13281 19.9141 3.42969L17.5703 1.08594C16.8672 0.34375 15.6562 0.34375 14.9141 1.08594L13.1172 2.88281C12.9609 3.03906 12.9609 3.35156 13.1172 3.54688L17.4531 7.88281C17.6484 8.03906 17.9609 8.03906 18.1172 7.88281L19.9141 6.08594ZM11.5938 4.40625L1.32031 14.6797L0.5 19.4062C0.382812 20.0703 0.929688 20.6172 1.59375 20.5L6.32031 19.6797L16.5938 9.40625C16.7891 9.25 16.7891 8.9375 16.5938 8.74219L12.2578 4.40625C12.0625 4.25 11.75 4.25 11.5938 4.40625ZM5.34375 13.7812C5.10938 13.5859 5.10938 13.2344 5.34375 13.0391L11.3594 7.02344C11.5547 6.78906 11.9062 6.78906 12.1016 7.02344C12.3359 7.21875 12.3359 7.57031 12.1016 7.76562L6.08594 13.7812C5.89062 14.0156 5.53906 14.0156 5.34375 13.7812ZM3.9375 17.0625H5.8125V18.5078L3.27344 18.9375L2.0625 17.7266L2.49219 15.1875H3.9375V17.0625Z" fill="black"/>
</svg>
