<svg width="18" height="19" viewBox="0 0 18 25" fill="none" xmlns="http://www.w3.org/2000/svg">
<path d="M16.5 7.625H10.875V2C10.875 1.33594 10.2891 0.75 9.625 0.75H8.375C7.67188 0.75 7.125 1.33594 7.125 2V7.625H1.5C0.796875 7.625 0.25 8.21094 0.25 8.875V10.125C0.25 10.8281 0.796875 11.375 1.5 11.375H7.125V17C7.125 17.7031 7.67188 18.25 8.375 18.25H9.625C10.2891 18.25 10.875 17.7031 10.875 17V11.375H16.5C17.1641 11.375 17.75 10.8281 17.75 10.125V8.875C17.75 8.21094 17.1641 7.625 16.5 7.625Z" fill="black"/>
</svg>
